smi 5 0
<part> smd 37
parasolid 37 1
*
-1
-0.0060000000000000001 -4.8937430722750296e-18 -0.11509496253135179
0.0060000000000000001 0.029999999999999999 0.14280000000000001
1 1007 5 0
0 0 0 0
-0.0060000000000000001 -4.8937430722750296e-18 -0.11509496253135179
0.0060000000000000001 0.029999999999999999 0.14280000000000001
_sim_empty
0 
0 0 0 0
0

0
1 9 21 14
0 0 0 0
0 0 0 0
0 0 0 0
2
114 4 1
133 4 1
1 0 5 0 0 0 2
114 133 
_sim_empty
368 
-0.0060000000000000001 0.0044839100877661102 0.00038019774437693399
0
55 4 2
60 4 2
2 0 5 0 0 0 2
55 60 
_sim_empty
50 
0.0060000000000000001 0.0060000000000000001 -0.11509496253135179
0
39 4 3
44 4 3
3 0 5 0 0 0 2
39 44 
_sim_empty
45 
0.0060000000000000001 0.029999999999999999 -0.115
0
23 4 4
28 4 4
4 0 5 0 0 0 2
23 28 
_sim_empty
25 
0.0060000000000000001 0.029999999999999999 0.14280000000000001
0
7 4 5
12 4 5
5 0 5 0 0 0 2
7 12 
_sim_empty
20 
0.0060000000000000001 3.6859404417555198e-18 0.14280000000000001
0
50 4 6
58 4 6
6 0 5 0 0 0 2
50 58 
_sim_empty
128 
-0.0060000000000000001 0.0060000000000000001 -0.11509496253135179
0
34 4 7
42 4 7
7 0 5 0 0 0 2
34 42 
_sim_empty
130 
-0.0060000000000000001 0.029999999999999999 -0.115
0
18 4 8
26 4 8
8 0 5 0 0 0 2
18 26 
_sim_empty
138 
-0.0060000000000000001 0.029999999999999999 0.14280000000000001
0
2 4 9
10 4 9
9 0 5 0 0 0 2
2 10 
_sim_empty
140 
-0.0060000000000000001 3.6859404417555198e-18 0.14280000000000001
0
3 4 10
15 4 10
10 0 5 0 0 0 2
3 15 
_sim_empty
511 
-0.0060000000000000001 0 0.0044999999999999997
0
5 4 11
14 4 11
11 0 5 0 0 0 2
5 14 
_sim_empty
526 
0.0060000000000000001 0 0.0044999999999999997
0
66 4 12
74 4 12
12 0 5 0 0 0 2
66 74 
_sim_empty
513 
-0.0060000000000000001 0.0059999999999999299 -0.017500000000000002
0
81 4 13
96 4 13
13 0 5 0 0 0 2
81 96 
_sim_empty
520 
0.0060000000000000001 0.0044839100877661102 0.00038019774437693399
0
71 4 14
76 4 14
14 0 5 0 0 0 2
71 76 
_sim_empty
521 
0.0060000000000000001 0.0059999999999999299 -0.017500000000000002
0
4 5 1 7 2 
5 5 1 12 10 
1 1 5 0 1 0 2 5 9
4 5 
_sim_empty
182 
1 0.0060000000000000001 0 3.6859404417555198e-18 0.14280000000000001
0
12 5 2 23 18 
13 5 2 28 26 
2 1 5 0 1 0 2 4 8
12 13 
_sim_empty
181 
1 0.0060000000000000001 0 0.029999999999999999 0.14280000000000001
0
20 5 3 39 34 
21 5 3 44 42 
3 1 5 0 1 0 2 3 7
20 21 
_sim_empty
177 
1 0.0060000000000000001 0 0.029999999999999999 -0.115
0
28 5 4 55 50 
29 5 4 60 58 
4 1 5 0 1 0 2 2 6
28 29 
_sim_empty
176 
1 0.0060000000000000001 0 0.0060000000000000001 -0.11509496253135179
0
35 5 5 55 71 
38 5 5 60 76 
5 1 5 0 1 0 2 2 14
35 38 
_sim_empty
56 
1 0.048797481265675881 0.0060000000000000001 0.0059999999999999949 -0.066297481265675917
0
27 5 6 39 55 
30 5 6 44 60 
6 1 5 0 1 0 2 3 2
27 30 
_sim_empty
51 
1 0.012000093935906926 0.0060000000000000001 0.018000000000000002 -0.11504748126567592
0
19 5 7 23 39 
22 5 7 28 44 
7 1 5 0 1 0 2 4 3
19 22 
_sim_empty
31 
1 0.12890000000000001 0.0060000000000000001 0.029999999999999992 0.013899999999999996
0
11 5 8 7 23 
14 5 8 12 28 
8 1 5 0 1 0 2 5 4
11 14 
_sim_empty
26 
1 0.014999999999999998 0.0060000000000000001 0.015000000000000001 0.14280000000000001
0
3 5 9 5 7 
6 5 9 14 12 
9 1 5 0 1 0 2 11 5
3 6 
_sim_empty
6 
1 0.10724496253135191 0.0060000000000000001 -2.9744450184542959e-18 0.073650000000000104
0
33 5 10 50 66 
40 5 10 58 74 
10 1 5 0 1 0 2 6 12
33 40 
_sim_empty
104 
1 0.048797481265675881 -0.0060000000000000001 0.0059999999999999949 -0.066297481265675917
0
25 5 11 34 50 
32 5 11 42 58 
11 1 5 0 1 0 2 7 6
25 32 
_sim_empty
106 
1 0.012000093935906926 -0.0060000000000000001 0.018000000000000002 -0.11504748126567592
0
17 5 12 18 34 
24 5 12 26 42 
12 1 5 0 1 0 2 8 7
17 24 
_sim_empty
108 
1 -0.068900000000000003 -0.0060000000000000001 0.029999999999999999 0.013900000000000003
0
9 5 13 2 18 
16 5 13 10 26 
13 1 5 0 1 0 2 9 8
9 16 
_sim_empty
116 
1 0.014999999999999998 -0.0060000000000000001 0.015000000000000001 0.14280000000000001
0
1 5 14 3 2 
8 5 14 15 10 
14 1 5 0 1 0 2 10 9
1 8 
_sim_empty
118 
1 0.063649999999999998 -0.0060000000000000001 1.7666423879347791e-18 0.073649999999999993
0
2 5 15 3 5 
7 5 15 15 14 
15 1 5 0 1 0 2 10 11
2 7 
_sim_empty
487 
1 0.0060000000000000001 0 -1.5265566588595899e-19 0.0044999999999999997
0
70 5 16 81 114 
75 5 16 96 133 
16 1 5 0 1 0 2 13 1
70 75 
_sim_empty
498 
1 0.0060000000000000001 0 0.0044839100877661102 0.00038019774437693399
0
36 5 17 71 66 
37 5 17 76 74 
17 1 5 0 1 0 2 14 12
36 37 
_sim_empty
466 
1 0.0060000000000000001 0 0.0059999999999999299 -0.017500000000000002
0
56 5 18 114 66 
67 5 18 133 74 
18 1 5 0 1 0 2 1 12
56 67 
_sim_empty
448 
1 0.0089721792224631853 -0.0060000000000000001 0.0052419550438830217 -0.0085599011278115408
0
57 5 19 3 114 
66 5 19 15 133 
19 1 5 0 1 0 2 10 1
57 66 
_sim_empty
506 
1 5.5400817582675312 -0.0060000000000000001 0.0030445944024043515 0.0033136754404811735
0
41 5 20 81 71 
54 5 20 96 76 
20 1 5 0 1 0 2 13 14
41 54 
_sim_empty
494 
1 0.0089721792224631853 0.0060000000000000001 0.0052419550438830217 -0.0085599011278115408
0
47 5 21 5 81 
48 5 21 14 96 
21 1 5 0 1 0 2 11 13
47 48 
_sim_empty
460 
1 5.5400817582675312 0.0060000000000000001 0.0030445944024043515 0.0033136754404811735
0
1 6 1 1 0 2
4 14 1 0 15 2 1 9 3 1 1 4 1 2 6 1 0 0 1
4 1 5 0 9 6 0 15 7 0 14 8 1 1 2 5 0 2 0
1 1 
0

  1 2 
0

0
_sim_empty
204 
1 -0.13278445650724902 -0.0068980530513907106 -0.00089805305139071048 3.6855090231671365e-18 0.14278445650724902
0
3 6 2 1 0 4
4 13 9 0 1 4 0 8 11 1 2 12 1 4 6 2 0 0 3
4 2 13 0 8 14 0 1 5 1 13 16 1 2 2 5 0 2 0
1 3 
0

  1 4 
0

0
_sim_empty
202 
1 -0.011998651323839394 0.012754867371523223 -0.0059986513238393935 0.012754867371523227 0.14280000000000001
0
5 6 3 1 0 6
4 12 17 0 2 12 0 7 19 1 3 20 1 6 6 3 0 0 5
4 3 21 0 7 22 0 2 13 1 12 24 1 3 2 5 0 2 0
1 5 
0

  1 6 
0

0
_sim_empty
194 
1 -0.059971025940482987 -0.0068980530513907106 -0.00089805305139071048 0.029999999999999999 -0.11497102594048299
0
7 6 4 1 0 8
4 11 25 0 3 20 0 6 27 1 4 28 1 8 6 4 0 0 7
4 4 29 0 6 30 0 3 21 1 11 32 1 4 2 5 0 2 0
1 7 
0

  1 8 
0

0
_sim_empty
192 
1 -0.023997490498377787 -0.006898053051390708 -0.00089805305139070615 0.0060026973523212152 -0.11509495185854332
0
9 6 5 1 0 10
4 10 33 0 4 28 0 5 35 1 17 36 1 10 6 5 0 0 9
4 17 37 0 5 38 0 4 29 1 10 40 1 5 2 5 0 2 0
1 9 
0

  1 10 
0

0
_sim_empty
190 
1 -0.097583993864738344 -0.0068980530513907106 -0.00089805305139071048 0.0059999999999999897 -0.017510968666613447
0
11 6 6 1 0 12
7 20 41 1 5 35 0 6 27 0 7 19 0 8 11 0 9 3 0 21 47 1 12 6 6 0 0 11
7 21 48 0 9 6 1 8 14 1 7 22 1 6 30 1 5 38 1 20 54 0 6 2 5 0 2 0
1 11 
0

  1 12 
0

0
_sim_empty
64 
1 -0.11488771691533438 0.013741691561295503 0.0060000000000000001 0.013741691561295503 -0.11488771691533438
0
13 6 7 1 0 14
7 10 33 1 18 56 0 19 57 0 14 1 1 13 9 1 12 17 1 11 25 1 14 6 7 0 0 13
7 11 32 0 12 24 0 13 16 0 14 8 0 19 66 1 18 67 1 10 40 0 7 2 5 0 2 0
1 13 
0

  1 14 
0

0
_sim_empty
98 
1 -0.11488771691533438 0.013741691561295505 -0.0060000000000000001 0.013741691561295505 -0.11488771691533438
0
15 6 8 1 0 16
4 19 57 1 16 70 0 21 47 0 15 2 0 16 6 8 0 0 15
4 15 7 1 21 48 1 16 75 1 19 66 0 8 2 5 0 2 0
1 15 
0

  1 16 
0

0
_sim_empty
561 
1 1.9762554724417292 0.0086107470917565505 0.0026107470917565503 0.0041351462473202044 0.0017749832430965736
0
17 6 9 1 0 18
4 20 41 0 16 70 1 18 56 1 17 36 0 18 6 9 0 0 17
4 17 37 1 18 67 0 16 75 0 20 54 1 9 2 5 0 2 0
1 17 
0

  1 18 
0

0
_sim_empty
565 
1 2.0167607043491462e-06 0.005101946948609294 -0.00089805305139070268 0.0044840804806262746 0.00037818819467320399
0
1 8 1 9
1 0 2 0 3 0 4 0 5 0 6 0 7 0 8 0 9 0 1 3 5 0 3 0 1 
1 
0
0
_sim_empty
236 
0 -1
3 8 2 9
1 1 2 1 3 1 4 1 5 1 9 1 7 1 8 1 6 1 2 3 8 0 303 0 1 
3 
0
0
_sim_empty
-1
0
0 -1
0 -1
0 -1
0 -1
0 -1
<part> auxmm 3
0
0
<part> attributes 10
AttDBVersion 10 8
0 1 0 19 20
1 2 7
0 
16 FixIntersections
0 
0 0 1
0
0
1 1
0 
1
1 2 3
0 
18 MeshRepresentation
0 
0 0 1
0
0
1 1
0 
0
1 2 4
0 
9 Smoothing
0 
0 0 1
0
0
1 1
0 
2
1 2 5
0 
13 SmoothingType
0 
0 0 1
0
0
1 1
0 
0
1 2 6
0 
12 Optimization
0 
0 0 1
0
0
1 1
0 
1
1 2 8
0 
16 EnforceGradation
0 
0 0 1
0
0
1 1
0 
0
1 3 9
0 
17 FaceRotationLimit
0 
0 0 1
0
0
2 1
0 
15
1 2 10
0 
12 DiscreteSnap
0 
0 0 1
0
0
1 1
0 
0
1 7 2
0 
13 SurfaceMesher
0 
0 0 1
0
8 3 4 5 6 7 8 9 10
1 2 15
0 
12 Optimization
0 
0 0 1
0
0
1 1
0 
1
1 2 12
0 
11 EnforceSize
0 
0 0 1
0
0
1 1
0 
0
1 2 13
0 
9 Smoothing
0 
0 0 1
0
0
1 1
0 
1
1 2 14
0 
13 SmoothingType
0 
0 0 1
0
0
1 1
0 
0
1 2 16
0 
13 ModifySurface
0 
0 0 1
0
0
1 1
0 
1
1 2 17
0 
8 ModifyBL
0 
0 0 1
0
0
1 1
0 
0
1 2 18
0 
16 MeshingByGRegion
0 
0 0 1
0
0
1 1
0 
0
1 7 11
0 
12 VolumeMesher
0 
0 0 1
0
7 12 13 14 15 16 17 18
1 3 20
0 
8 MeshSize
8 Absolute
0 0 1
0
0
2 -1
0 
7 0.009/4
1 10 19
0 
9 parasolid
0 
0 0 1
0
0
1
4
112 file:///users/gordoz2/lore.scorec.rpi.edu/LLMEnhancedMeshing/testCases/tunnel/CCSiC_12102024_slab_v7EXTunnel.smd27 model.nonmanifold.parasolid6 # 1 0 0 3 1 1
7 initial
7 Meshing
0 
15 0 1
0
3 2 11 20
19
1 1
1
1
9 1  1 20
<index>
3
smd 8
auxmm 7754
attributes 7773
</index>
<header>
4
112 file:///users/gordoz2/lore.scorec.rpi.edu/LLMEnhancedMeshing/testCases/tunnel/CCSiC_12102024_slab_v7EXTunnel.smd27 model.nonmanifold.parasolid6 # 1 0 0 
1
14 FromVoxelModel0 
1
6 native4
40 ./CCSiC_12102024_slab_v7EXTunnel_nat.x_t21 nativeModel.parasolid6 # 1 0 0 
</header>
8991 9043                                                                                                                      
