smi 5 0
<part> smd 37
parasolid 37 1
*
-1
-0.0060000000000000001 -0.088200000000000001 -0.033599999999999998
0.0060000000000000001 0.088200000000000001 0.14280000000000001
1 1007 5 0
0 0 0 0
-0.0060000000000000001 -0.088200000000000001 -0.033599999999999998
0.0060000000000000001 0.088200000000000001 0.14280000000000001
_sim_empty
0 
0 0 0 0
0

0
1 12 30 20
0 0 0 0
0 0 0 0
0 0 0 0
2
32 4 1
43 4 1
1 0 5 0 0 0 2
32 43 
_sim_empty
410 
-0.0060000000000000001 0.0044839100877661102 0.00038019774437693496
0
34 4 2
41 4 2
2 0 5 0 0 0 2
34 41 
_sim_empty
585 
-0.0060000000000000001 -0.0044839100877661102 0.00038019774437696147
0
36 4 3
39 4 3
3 0 5 0 0 0 2
36 39 
_sim_empty
584 
-0.0060000000000000001 -0.0060000000000000704 -0.017500000000000002
0
5 4 4
13 4 4
4 0 5 0 0 0 2
5 13 
_sim_empty
583 
-0.0060000000000000001 -0.0060000000000000704 -0.033599999999999998
0
28 4 5
48 4 5
5 0 5 0 0 0 2
28 48 
_sim_empty
578 
-0.0060000000000000001 0.0059999999999999299 -0.033599999999999998
0
30 4 6
45 4 6
6 0 5 0 0 0 2
30 45 
_sim_empty
587 
-0.0060000000000000001 0.0059999999999999299 -0.017500000000000002
0
73 4 7
82 4 7
7 0 5 0 0 0 2
73 82 
_sim_empty
581 
0.0060000000000000001 0.0044839100877661102 0.00038019774437693399
0
71 4 8
84 4 8
8 0 5 0 0 0 2
71 84 
_sim_empty
580 
0.0060000000000000001 -0.0044839100877661102 0.00038019774437696147
0
69 4 9
86 4 9
9 0 5 0 0 0 2
69 86 
_sim_empty
579 
0.0060000000000000001 -0.0060000000000000704 -0.017500000000000002
0
8 4 10
12 4 10
10 0 5 0 0 0 2
8 12 
_sim_empty
577 
0.0060000000000000001 -0.0060000000000000704 -0.033599999999999998
0
57 4 11
78 4 11
11 0 5 0 0 0 2
57 78 
_sim_empty
588 
0.0060000000000000001 0.0059999999999999299 -0.033599999999999998
0
75 4 12
80 4 12
12 0 5 0 0 0 2
75 80 
_sim_empty
582 
0.0060000000000000001 0.0059999999999999299 -0.017500000000000002
0
63 4 13
92 4 13
13 0 5 0 0 0 2
63 92 
_sim_empty
1139 
0.0060000000000000001 -0.088200000000000001 0.14280000000000001
0
61 4 14
94 4 14
14 0 5 0 0 0 2
61 94 
_sim_empty
1123 
0.0060000000000000001 0.088200000000000001 0.14280000000000001
0
59 4 15
96 4 15
15 0 5 0 0 0 2
59 96 
_sim_empty
1122 
0.0060000000000000001 0.088200000000000001 -0.033599999999999998
0
1 4 16
9 4 16
16 0 5 0 0 0 2
1 9 
_sim_empty
1112 
0.0060000000000000001 -0.088200000000000001 -0.033599999999999998
0
22 4 17
53 4 17
17 0 5 0 0 0 2
22 53 
_sim_empty
1137 
-0.0060000000000000001 -0.088200000000000001 0.14280000000000001
0
24 4 18
51 4 18
18 0 5 0 0 0 2
24 51 
_sim_empty
1136 
-0.0060000000000000001 0.088200000000000001 0.14280000000000001
0
25 4 19
49 4 19
19 0 5 0 0 0 2
25 49 
_sim_empty
1114 
-0.0060000000000000001 0.088200000000000001 -0.033599999999999998
0
4 4 20
16 4 20
20 0 5 0 0 0 2
4 16 
_sim_empty
1138 
-0.0060000000000000001 -0.088200000000000001 -0.033599999999999998
0
4 5 1 1 8 
5 5 1 9 12 
1 1 5 0 1 0 2 16 10
4 5 
_sim_empty
197 
1 -0.091200000000000031 0.0060000000000000001 -0.047100000000000031 -0.033599999999999998
0
29 5 2 57 59 
48 5 2 78 96 
2 1 5 0 1 0 2 11 15
29 48 
_sim_empty
439 
1 0.0029999999999999645 0.0060000000000000001 0.047099999999999961 -0.033599999999999998
0
13 5 3 25 28 
24 5 3 49 48 
3 1 5 0 1 0 2 19 5
13 24 
_sim_empty
41 
1 -0.0029999999999999645 -0.0060000000000000001 0.047099999999999961 -0.033599999999999998
0
2 5 4 5 4 
7 5 4 13 16 
4 1 5 0 1 0 2 4 20
2 7 
_sim_empty
406 
1 0.091200000000000031 -0.0060000000000000001 -0.047100000000000031 -0.033599999999999998
0
51 5 5 28 57 
54 5 5 48 78 
5 1 5 0 1 0 2 5 11
51 54 
_sim_empty
523 
1 0.0060000000000000001 0 0.0059999999999999299 -0.033599999999999998
0
3 5 6 5 8 
6 5 6 13 12 
6 1 5 0 1 0 2 4 10
3 6 
_sim_empty
531 
1 0.0060000000000000001 0 -0.0060000000000000704 -0.033599999999999998
0
68 5 7 69 36 
69 5 7 86 39 
7 1 5 0 1 0 2 9 3
68 69 
_sim_empty
539 
1 0.0060000000000000001 0 -0.0060000000000000704 -0.017500000000000002
0
76 5 8 71 34 
77 5 8 84 41 
8 1 5 0 1 0 2 8 2
76 77 
_sim_empty
545 
1 0.0060000000000000001 0 -0.0044839100877661102 0.00038019774437696147
0
84 5 9 73 32 
85 5 9 82 43 
9 1 5 0 1 0 2 7 1
84 85 
_sim_empty
551 
1 0.0060000000000000001 0 0.0044839100877661102 0.00038019774437693399
0
58 5 10 75 30 
63 5 10 80 45 
10 1 5 0 1 0 2 12 6
58 63 
_sim_empty
517 
1 0.0060000000000000001 0 0.0059999999999999299 -0.017500000000000002
0
15 5 11 32 30 
22 5 11 43 45 
11 1 5 0 1 0 2 1 6
15 22 
_sim_empty
573 
1 0.0089721792224631836 -0.0060000000000000001 0.0052419550438830217 -0.0085599011278115391
0
16 5 12 34 32 
21 5 12 41 43 
12 1 5 0 1 0 2 2 1
16 21 
_sim_empty
569 
1 4.796978209355478 -0.0060000000000000001 1.1980434005964824e-17 0.0045000000000000005
0
17 5 13 36 34 
20 5 13 39 41 
13 1 5 0 1 0 2 3 2
17 20 
_sim_empty
565 
1 0.0089721792224631888 -0.0060000000000000001 -0.0052419550438830981 -0.00855990112781152
0
18 5 14 5 36 
19 5 14 13 39 
14 1 5 0 1 0 2 4 3
18 19 
_sim_empty
561 
1 0.0080499999999999981 -0.0060000000000000001 -0.0060000000000000704 -0.02555
0
14 5 15 30 28 
23 5 15 45 48 
15 1 5 0 1 0 2 6 5
14 23 
_sim_empty
553 
1 0.0080499999999999981 -0.0060000000000000001 0.0059999999999999316 -0.02555
0
37 5 16 73 75 
40 5 16 82 80 
16 1 5 0 1 0 2 7 12
37 40 
_sim_empty
547 
1 0.0089721792224631853 0.0060000000000000001 0.0052419550438830217 -0.0085599011278115408
0
36 5 17 71 73 
41 5 17 84 82 
17 1 5 0 1 0 2 8 7
36 41 
_sim_empty
541 
1 4.796978209355478 0.0060000000000000001 1.1980434005964824e-17 0.0045000000000000005
0
35 5 18 69 71 
42 5 18 86 84 
18 1 5 0 1 0 2 9 8
35 42 
_sim_empty
535 
1 0.0089721792224631888 0.0060000000000000001 -0.0052419550438830981 -0.00855990112781152
0
34 5 19 8 69 
43 5 19 12 86 
19 1 5 0 1 0 2 10 9
34 43 
_sim_empty
527 
1 0.0080499999999999981 0.0060000000000000001 -0.0060000000000000704 -0.02555
0
38 5 20 75 57 
39 5 20 80 78 
20 1 5 0 1 0 2 12 11
38 39 
_sim_empty
513 
1 0.0080499999999999981 0.0060000000000000001 0.0059999999999999316 -0.02555
0
1 5 21 1 4 
8 5 21 9 16 
21 1 5 0 1 0 2 16 20
1 8 
_sim_empty
978 
1 0.0060000000000000001 0 -0.088200000000000001 -0.033599999999999998
0
49 5 22 59 25 
56 5 22 96 49 
22 1 5 0 1 0 2 15 19
49 56 
_sim_empty
1090 
1 0.0060000000000000001 0 0.088200000000000001 -0.033599999999999998
0
98 5 23 61 24 
103 5 23 94 51 
23 1 5 0 1 0 2 14 18
98 103 
_sim_empty
1094 
1 0.0060000000000000001 0 0.088200000000000001 0.14280000000000001
0
106 5 24 63 22 
111 5 24 92 53 
24 1 5 0 1 0 2 13 17
106 111 
_sim_empty
1098 
1 0.0060000000000000001 0 -0.088200000000000001 0.14280000000000001
0
31 5 25 61 63 
46 5 25 94 92 
25 1 5 0 1 0 2 14 13
31 46 
_sim_empty
1019 
1 0.088200000000000001 0.0060000000000000001 0 0.14280000000000001
0
30 5 26 59 61 
47 5 26 96 94 
26 1 5 0 1 0 2 15 14
30 47 
_sim_empty
1017 
1 0.088200000000000001 0.0060000000000000001 0.088200000000000167 0.054600000000000003
0
32 5 27 63 1 
45 5 27 92 9 
27 1 5 0 1 0 2 13 16
32 45 
_sim_empty
1021 
1 -0.027600000000000006 0.0060000000000000001 -0.088199999999999945 0.05460000000000001
0
10 5 28 22 4 
27 5 28 53 16 
28 1 5 0 1 0 2 17 20
10 27 
_sim_empty
1096 
1 0.088200000000000001 -0.0060000000000000001 -0.088200000000000181 0.05460000000000001
0
11 5 29 24 22 
26 5 29 51 53 
29 1 5 0 1 0 2 18 17
11 26 
_sim_empty
1092 
1 0.088200000000000001 -0.0060000000000000001 0 0.14280000000000001
0
12 5 30 25 24 
25 5 30 49 51 
30 1 5 0 1 0 2 19 18
12 25 
_sim_empty
1088 
1 0.027600000000000006 -0.0060000000000000001 0.088200000000000056 0.05460000000000001
0
1 6 1 1 0 2
4 21 1 1 4 2 0 6 3 1 1 4 0 2 6 1 0 0 1
4 1 5 1 6 6 0 4 7 1 21 8 0 1 2 5 0 2 0
1 1 
0

  1 2 
0

0
_sim_empty
475 
1 0.1068013486761606 -0.097351663402026389 0.0059986513238393935 -0.053251663402026389 -0.033599999999999998
0
3 6 2 1 0 4
10 4 2 1 28 10 0 29 11 0 30 12 0 3 13 1 15 14 0 11 15 0 12 16 0 13 17 0 14 18 0 4 6 2 0 0 3
10 14 19 1 13 20 1 12 21 1 11 22 1 15 23 1 3 24 0 30 25 1 29 26 1 28 27 1 4 7 0 2 2 5 0 2 0
1 3 
0

  1 4 
0

0
_sim_empty
35 
1 -0.13351767446043911 -0.041726379855443432 -0.0060000000000000001 -0.013201379855443434 0.14278017446043911
0
5 6 3 1 0 6
10 2 29 1 26 30 1 25 31 1 27 32 1 1 4 1 19 34 1 18 35 1 17 36 1 16 37 1 20 38 1 6 6 3 0 0 5
10 20 39 0 16 40 0 17 41 0 18 42 0 19 43 0 1 5 0 27 45 0 25 46 0 26 47 0 2 48 0 3 2 5 0 2 0
1 5 
0

  1 6 
0

0
_sim_empty
151 
1 -0.033580174460439094 -0.013201379855443438 0.0060000000000000001 -0.013201379855443438 -0.033580174460439094
0
7 6 4 1 0 8
4 22 49 0 2 29 0 5 51 0 3 13 0 8 6 4 0 0 7
4 3 24 1 5 54 1 2 48 1 22 56 1 4 2 5 0 2 0
1 7 
0

  1 8 
0

0
_sim_empty
64 
1 0.1068013486761606 -0.0031516634020264042 0.0059986513238393935 0.040948336597973596 -0.033599999999999998
0
9 6 5 1 0 10
4 20 38 0 10 58 1 15 14 1 5 51 1 10 6 5 0 0 9
4 5 54 0 15 23 0 10 63 0 20 39 1 5 2 5 0 2 0
1 9 
0

  1 10 
0

0
_sim_empty
589 
1 1.809473848812968e-06 0.0051019469486092896 -0.00089805305139071048 0.0059999999999999299 -0.017501809473848814
0
11 6 6 1 0 12
4 19 34 0 6 3 0 14 18 1 7 68 0 12 6 6 0 0 11
4 7 69 1 14 19 0 6 6 1 19 43 1 6 2 5 0 2 0
1 11 
0

  1 12 
0

0
_sim_empty
597 
1 1.809473848812968e-06 0.0051019469486092896 -0.00089805305139071048 -0.0060000000000000704 -0.033598190526151185
0
13 6 7 1 0 14
4 18 35 0 7 68 1 13 17 1 8 76 0 14 6 7 0 0 13
4 8 77 1 13 20 0 7 69 0 18 42 1 7 2 5 0 2 0
1 13 
0

  1 14 
0

0
_sim_empty
601 
1 2.0167607043374783e-06 0.0051019469486092896 -0.00089805305139071048 -0.0059998296071399164 -0.01749799045029627
0
15 6 8 1 0 16
4 17 36 0 8 76 1 12 16 1 9 84 0 16 6 8 0 0 15
4 9 85 1 12 21 0 8 77 0 17 41 1 8 2 5 0 2 0
1 15 
0

  1 16 
0

0
_sim_empty
605 
1 3.6120720454497133 0.011880503291208532 0.0058805032912085317 -0.0020399113975600749 0.0040110798409037562
0
17 6 9 1 0 18
4 16 37 0 9 84 1 11 15 1 10 58 0 18 6 9 0 0 17
4 10 63 1 11 22 0 9 85 0 16 40 1 9 2 5 0 2 0
1 17 
0

  1 18 
0

0
_sim_empty
609 
1 2.0167607043481747e-06 0.005101946948609294 -0.00089805305139070268 0.0044840804806262746 0.00037818819467320492
0
19 6 10 1 0 20
4 30 12 1 23 98 0 26 30 0 22 49 1 20 6 10 0 0 19
4 22 56 0 26 47 1 23 103 1 30 25 0 10 2 5 0 2 0
1 19 
0

  1 20 
0

0
_sim_empty
1195 
1 -0.1157801744604391 -0.0068980530513907106 -0.00089805305139071048 0.088200000000000223 0.14278017446043911
0
21 6 11 1 0 22
4 29 11 1 24 106 0 25 31 0 23 98 1 22 6 11 0 0 21
4 23 103 0 25 46 1 24 111 1 29 26 0 11 2 5 0 2 0
1 21 
0

  1 22 
0

0
_sim_empty
1200 
1 1.3486761606059392e-06 -0.10140137985544344 0.0059986513238393943 -0.013201379855443438 0.14280000000000001
0
23 6 12 1 0 24
4 28 10 1 21 1 0 27 32 0 24 106 1 24 6 12 0 0 23
4 24 111 0 27 45 1 21 8 1 28 27 0 12 2 5 0 2 0
1 23 
0

  1 24 
0

0
_sim_empty
1204 
1 -0.1763801744604391 -0.0068980530513907106 -0.00089805305139071048 -0.088200000000000361 -0.033580174460439094
0
1 8 1 12
1 0 2 0 3 0 4 0 5 0 6 0 7 0 8 0 9 0 10 0 11 0 12 0 1 3 5 0 3 0 1 
1 
0
0
_sim_empty
74 
0 -1
3 8 2 12
1 1 3 1 5 1 4 1 2 1 6 1 7 1 8 1 9 1 10 1 11 1 12 1 2 3 8 0 303 0 1 
3 
0
0
_sim_empty
-1
0
0 -1
0 -1
0 -1
0 -1
0 -1
<part> auxmm 3
0
0
<part> attributes 10
AttDBVersion 10 8
0 2 0 46 49
1 2 7
0 
16 FixIntersections
0 
0 0 1
0
0
1 1
0 
1
1 2 3
0 
18 MeshRepresentation
0 
0 0 1
0
0
1 1
0 
0
1 10 23
0 
9 parasolid
0 
0 0 1
0
0
1
4
105 file:///users/gordoz2/lore.scorec.rpi.edu/LLMEnhancedMeshing/testCases/muri/CCSiC_12102024_slab_v7EX2.smd27 model.nonmanifold.parasolid6 # 1 0 0 1 2 41
0 
16 MeshingByGRegion
0 
0 0 1
0
0
1 1
0 
0
1 2 4
0 
9 Smoothing
0 
0 0 1
0
0
1 1
0 
2
1 2 5
0 
13 SmoothingType
0 
0 0 1
0
0
1 1
0 
0
1 2 6
0 
12 Optimization
0 
0 0 1
0
0
1 1
0 
1
1 2 8
0 
16 EnforceGradation
0 
0 0 1
0
0
1 1
0 
0
1 3 9
0 
17 FaceRotationLimit
0 
0 0 1
0
0
2 1
0 
15
1 2 10
0 
12 DiscreteSnap
0 
0 0 1
0
0
1 1
0 
0
1 7 2
0 
13 SurfaceMesher
0 
0 0 1
0
8 3 4 5 6 7 8 9 10
1 2 39
0 
13 ModifySurface
0 
0 0 1
0
0
1 1
0 
1
1 2 38
0 
12 Optimization
0 
0 0 1
0
0
1 1
0 
1
1 3 43
0 
4 size
9 numLayers
0 0 1
0
0
2 -1
0 
1 1
1 2 35
0 
11 EnforceSize
0 
0 0 1
0
0
1 1
0 
0
1 2 36
0 
9 Smoothing
0 
0 0 1
0
0
1 1
0 
1
1 2 37
0 
13 SmoothingType
0 
0 0 1
0
0
1 1
0 
0
1 2 40
0 
8 ModifyBL
0 
0 0 1
0
0
1 1
0 
0
1 7 26
0 
12 VolumeMesher
0 
0 0 1
0
7 35 36 37 38 39 40 41
1 2 15
0 
12 Optimization
0 
0 0 1
0
0
1 1
0 
1
1 2 48
0 
6 domain
0 
0 0 1
0
0
1 1
0 
0
1 2 31
0 
16 FixIntersections
0 
0 0 1
0
0
1 1
0 
1
1 2 29
0 
13 SmoothingType
0 
0 0 1
0
0
1 1
0 
0
1 2 30
0 
12 Optimization
0 
0 0 1
0
0
1 1
0 
1
1 2 12
0 
11 EnforceSize
0 
0 0 1
0
0
1 1
0 
0
1 2 13
0 
9 Smoothing
0 
0 0 1
0
0
1 1
0 
1
1 2 14
0 
13 SmoothingType
0 
0 0 1
0
0
1 1
0 
0
1 2 16
0 
13 ModifySurface
0 
0 0 1
0
0
1 1
0 
1
1 2 17
0 
8 ModifyBL
0 
0 0 1
0
0
1 1
0 
0
1 2 18
0 
16 MeshingByGRegion
0 
0 0 1
0
0
1 1
0 
0
1 7 11
0 
12 VolumeMesher
0 
0 0 1
0
7 12 13 14 15 16 17 18
1 2 47
0 
11 elementType
0 
0 0 1
0
0
1 1
0 
1
1 8 46
0 
6 region
0 
0 0 1
0
0
1
4 1
0 
1 3 1 1 2 49
0 
10 maintainBL
0 
0 0 1
0
0
1 1
0 
0
1 3 33
0 
17 FaceRotationLimit
0 
0 0 1
0
0
2 1
0 
15
1 3 21
0 
8 MeshSize
8 Absolute
0 0 1
0
0
2 -1
0 
7 0.009/4
1 3 24
0 
8 MeshSize
8 Absolute
0 0 1
0
0
2 -1
0 
7 0.009/4
1 2 32
0 
16 EnforceGradation
0 
0 0 1
0
0
1 1
0 
0
1 2 28
0 
9 Smoothing
0 
0 0 1
0
0
1 1
0 
2
1 8 45
0 
11 destination
0 
0 0 1
0
0
1
4 1
0 
1 2 2 1 2 34
0 
12 DiscreteSnap
0 
0 0 1
0
0
1 1
0 
0
1 2 27
0 
18 MeshRepresentation
0 
0 0 1
0
0
1 1
0 
0
1 7 25
0 
13 SurfaceMesher
0 
0 0 1
0
8 27 28 29 30 31 32 33 34
1 2 44
0 
16 findDestinations
0 
0 0 1
0
0
1 1
0 
1
1 7 42
0 
9 Extrusion
0 
0 0 1
0
7 43 44 45 46 47 48 49
1 10 19
0 
9 parasolid
0 
0 0 1
0
0
1
4
105 file:///users/gordoz2/lore.scorec.rpi.edu/LLMEnhancedMeshing/testCases/muri/CCSiC_12102024_slab_v7EX2.smd27 model.nonmanifold.parasolid6 # 1 0 0 3 1 1
7 initial
7 Meshing
0 
15 0 1
0
3 2 11 21
19
1 2
2
1
9 1  1 21
3 1 22
9 initialEX
7 Meshing
0 
15 0 1
0
4 25 26 24 42
23
2 2
1
1
9 1  1 24
2
1
2 3  1 42
<index>
3
smd 8
auxmm 10885
attributes 10904
</index>
<header>
4
105 file:///users/gordoz2/lore.scorec.rpi.edu/LLMEnhancedMeshing/testCases/muri/CCSiC_12102024_slab_v7EX2.smd27 model.nonmanifold.parasolid6 # 1 0 0 
1
14 FromVoxelModel0 
1
6 native4
35 ./CCSiC_12102024_slab_v7EX2_nat.x_t21 nativeModel.parasolid6 # 1 0 0 
</header>
13704 13758                                                                                                                    
