smi 5 0
<part> smd 37
parasolid 37 1
*
-1
-0.030002499999999998 -0.050002500000000005 -2.4999999999999998e-06
0.050002500000000005 0.050002500000000005 2.4999999999999998e-06
1 1007 5 0
0 0 0 0
-0.030002499999999998 -0.050002500000000005 -2.4999999999999998e-06
0.050002500000000005 0.050002500000000005 2.4999999999999998e-06
_sim_empty
0 
0 0 0 0
0

0
0 1 7 7
0 0 0 0
0 0 0 0
0 0 0 0
1
21 4 1
1 0 5 0 0 0 1
21 
_sim_empty
18 
0.0098480775301220003 0.001736481776669 0
0
19 4 2
2 0 5 0 0 0 1
19 
_sim_empty
16 
0 0 0
0
17 4 3
3 0 5 0 0 0 1
17 
_sim_empty
15 
0.0098480775301220003 -0.001736481776669 0
0
7 4 4
4 0 5 0 0 0 1
7 
_sim_empty
11 
-0.029999999999999999 0.050000000000000003 0
0
5 4 5
5 0 5 0 0 0 1
5 
_sim_empty
9 
0.050000000000000003 0.050000000000000003 0
0
3 4 6
6 0 5 0 0 0 1
3 
_sim_empty
7 
0.050000000000000003 -0.050000000000000003 0
0
1 4 7
7 0 5 0 0 0 1
1 
_sim_empty
6 
-0.029999999999999999 -0.050000000000000003 0
0
11 5 1 21 17 
1 1 5 0 1 0 1 1 3
11 
_sim_empty
19 
1 0.001736481776669 0.0098480775301220003 0 0
0
10 5 2 19 21 
2 1 5 0 1 0 1 2 1
10 
_sim_empty
17 
1 0.0049999999999999351 0.0049240387650608865 0.00086824088833515624 0
0
9 5 3 17 19 
3 1 5 0 1 0 1 3 2
9 
_sim_empty
14 
1 0.0049999999999999351 0.0049240387650611138 -0.00086824088833384371 0
0
4 5 4 7 1 
4 1 5 0 1 0 1 4 7
4 
_sim_empty
12 
1 0.050000000000000003 -0.029999999999999999 0 0
0
3 5 5 5 7 
5 1 5 0 1 0 1 5 4
3 
_sim_empty
10 
1 0.040000000000000001 0.010000000000000002 0.050000000000000003 0
0
2 5 6 3 5 
6 1 5 0 1 0 1 6 5
2 
_sim_empty
8 
1 0.050000000000000003 0.050000000000000003 0 0
0
1 5 7 1 3 
7 1 5 0 1 0 1 7 6
1 
_sim_empty
5 
1 0.040000000000000001 0.010000000000000002 -0.050000000000000003 0
0
1 6 1 1 0 2
4 7 1 1 6 2 1 5 3 1 4 4 1 3 6 1 1 0 4
3 3 9 1 2 10 1 1 11 1 2 6 1 0 0 1
4 4 4 0 5 3 0 6 2 0 7 1 0 4 6 1 0 0 3
3 1 11 0 2 10 0 3 9 0 1 2 5 0 2 0
2 1 3 
0

  2 2 4 
0

0
_sim_empty
3 
1 -0.039991008825595961 -0.0074837754282559149 -0.029991008825595959 -0.0074837754282559149 0
0
0 -1
2 8 1 2
1 0 1 1 1 3 8 0 303 0 1 
2 
0
0
_sim_empty
-1
0
0 -1
0 -1
0 -1
0 -1
0 -1
<part> auxmm 3
0
0
<part> attributes 10
AttDBVersion 10 8
0 1 0 19 20
1 2 7
0 
16 FixIntersections
0 
0 0 1
0
0
1 1
0 
1
1 2 3
0 
18 MeshRepresentation
0 
0 0 1
0
0
1 1
0 
0
1 2 4
0 
9 Smoothing
0 
0 0 1
0
0
1 1
0 
2
1 2 5
0 
13 SmoothingType
0 
0 0 1
0
0
1 1
0 
0
1 2 6
0 
12 Optimization
0 
0 0 1
0
0
1 1
0 
1
1 2 8
0 
16 EnforceGradation
0 
0 0 1
0
0
1 1
0 
0
1 3 9
0 
17 FaceRotationLimit
0 
0 0 1
0
0
2 1
0 
15
1 2 10
0 
12 DiscreteSnap
0 
0 0 1
0
0
1 1
0 
0
1 7 2
0 
13 SurfaceMesher
0 
0 0 1
0
8 3 4 5 6 7 8 9 10
1 2 15
0 
12 Optimization
0 
0 0 1
0
0
1 1
0 
1
1 2 12
0 
11 EnforceSize
0 
0 0 1
0
0
1 1
0 
0
1 2 13
0 
9 Smoothing
0 
0 0 1
0
0
1 1
0 
1
1 2 14
0 
13 SmoothingType
0 
0 0 1
0
0
1 1
0 
0
1 2 16
0 
13 ModifySurface
0 
0 0 1
0
0
1 1
0 
1
1 2 17
0 
8 ModifyBL
0 
0 0 1
0
0
1 1
0 
0
1 2 18
0 
16 MeshingByGRegion
0 
0 0 1
0
0
1 1
0 
0
1 7 11
0 
12 VolumeMesher
0 
0 0 1
0
7 12 13 14 15 16 17 18
1 3 20
0 
8 MeshSize
8 Absolute
0 0 1
0
0
2 -1
0 
4 1e-3
1 10 19
0 
9 parasolid
0 
0 0 1
0
0
1
4
76 file:///users/deeps/Downloads/wedge_theta10_L10mm_h10mm_domain_parasolid.smd27 model.nonmanifold.parasolid6 # 1 0 0 3 1 1
5 case1
7 Meshing
0 
15 0 1
0
3 2 11 20
19
1 1
1
1
9 1  1 20
<index>
3
smd 8
auxmm 2090
attributes 2109
</index>
<header>
4
76 file:///users/deeps/Downloads/wedge_theta10_L10mm_h10mm_domain_parasolid.smd27 model.nonmanifold.parasolid6 # 1 0 0 
1
14 FromVoxelModel0 
1
6 native4
52 ./wedge_theta10_L10mm_h10mm_domain_parasolid_nat.x_t21 nativeModel.parasolid6 # 1 0 0 
</header>
3285 3337                                                                                                                      
