smi 5 0
<part> smd 37
parasolid 37 1
*
-1
-0.14999999999999999 -0.0030000000000000001 0
0.10000000000000001 0.0030000000000000001 0.14999999999999999
1 1007 5 0
0 0 0 0
-0.14999999999999999 -0.0030000000000000001 0
0.10000000000000001 0.0030000000000000001 0.14999999999999999
_sim_empty
0 
0 0 0 0
0

0
1 8 18 12
0 0 0 0
0 0 0 0
0 0 0 0
2
70 4 1
77 4 1
1 0 5 0 0 0 2
70 77 
_sim_empty
30 
0.10000000000000001 -0.0030000000000000001 0.14999999999999999
0
54 4 2
61 4 2
2 0 5 0 0 0 2
54 61 
_sim_empty
20 
0.10000000000000001 -0.0030000000000000001 0.026794919243099999
0
38 4 3
45 4 3
3 0 5 0 0 0 2
38 45 
_sim_empty
15 
0 -0.0030000000000000001 0.026794919243099999
0
22 4 4
29 4 4
4 0 5 0 0 0 2
22 29 
_sim_empty
10 
-0.10000000000000001 -0.0030000000000000001 0
0
6 4 5
13 4 5
5 0 5 0 0 0 2
6 13 
_sim_empty
5 
-0.14999999999999999 -0.0030000000000000001 0
0
7 4 6
11 4 6
6 0 5 0 0 0 2
7 11 
_sim_empty
2 
-0.14999999999999999 -0.0030000000000000001 0.14999999999999999
0
68 4 7
80 4 7
7 0 5 0 0 0 2
68 80 
_sim_empty
81 
0.10000000000000001 0.0030000000000000001 0.14999999999999999
0
52 4 8
64 4 8
8 0 5 0 0 0 2
52 64 
_sim_empty
85 
0.10000000000000001 0.0030000000000000001 0.026794919243099999
0
36 4 9
48 4 9
9 0 5 0 0 0 2
36 48 
_sim_empty
87 
0 0.0030000000000000001 0.026794919243099999
0
20 4 10
32 4 10
10 0 5 0 0 0 2
20 32 
_sim_empty
89 
-0.10000000000000001 0.0030000000000000001 0
0
4 4 11
16 4 11
11 0 5 0 0 0 2
4 16 
_sim_empty
91 
-0.14999999999999999 0.0030000000000000001 0
0
1 4 12
10 4 12
12 0 5 0 0 0 2
1 10 
_sim_empty
93 
-0.14999999999999999 0.0030000000000000001 0.14999999999999999
0
2 5 1 6 4 
7 5 1 13 16 
1 1 5 0 1 0 2 5 11
2 7 
_sim_empty
115 
1 0.0030000000000000001 -0.14999999999999999 0 0
0
10 5 2 22 20 
15 5 2 29 32 
2 1 5 0 1 0 2 4 10
10 15 
_sim_empty
114 
1 0.0030000000000000001 -0.10000000000000001 0 0
0
18 5 3 38 36 
23 5 3 45 48 
3 1 5 0 1 0 2 3 9
18 23 
_sim_empty
113 
1 0.0030000000000000001 0 0 0.026794919243099999
0
26 5 4 54 52 
31 5 4 61 64 
4 1 5 0 1 0 2 2 8
26 31 
_sim_empty
112 
1 0.0030000000000000001 0.10000000000000001 0 0.026794919243099999
0
34 5 5 70 68 
39 5 5 77 80 
5 1 5 0 1 0 2 1 7
34 39 
_sim_empty
110 
1 0.0030000000000000001 0.10000000000000001 0 0.14999999999999999
0
4 5 6 7 1 
5 5 6 11 10 
6 1 5 0 1 0 2 6 12
4 5 
_sim_empty
116 
1 0.0030000000000000001 -0.14999999999999999 0 0.14999999999999999
0
43 5 7 70 7 
46 5 7 77 11 
7 1 5 0 1 0 2 1 6
43 46 
_sim_empty
35 
1 0.125 -0.024999999999999994 -0.0030000000000000001 0.14999999999999999
0
35 5 8 54 70 
38 5 8 61 77 
8 1 5 0 1 0 2 2 1
35 38 
_sim_empty
26 
1 0.061602540378449998 0.099999999999999992 -0.0030000000000000001 0.08839745962154999
0
27 5 9 38 54 
30 5 9 45 61 
9 1 5 0 1 0 2 3 2
27 30 
_sim_empty
21 
1 0.050000000000000003 0.050000000000000003 -0.0030000000000000001 0.026794919243099999
0
19 5 10 22 38 
22 5 10 29 45 
10 1 5 0 1 0 2 4 3
19 22 
_sim_empty
16 
1 0.051763809020502566 -0.050000000000000003 -0.0030000000000000001 0.013397459621549994
0
11 5 11 6 22 
14 5 11 13 29 
11 1 5 0 1 0 2 5 4
11 14 
_sim_empty
11 
1 0.024999999999999994 -0.125 -0.0030000000000000001 0
0
3 5 12 7 6 
6 5 12 11 13 
12 1 5 0 1 0 2 6 5
3 6 
_sim_empty
6 
1 0.074999999999999997 -0.15000000000000016 -0.0030000000000000001 0.074999999999999997
0
41 5 13 68 1 
48 5 13 80 10 
13 1 5 0 1 0 2 7 12
41 48 
_sim_empty
67 
1 0.125 -0.024999999999999994 0.0030000000000000001 0.14999999999999999
0
33 5 14 52 68 
40 5 14 64 80 
14 1 5 0 1 0 2 8 7
33 40 
_sim_empty
69 
1 -0.011602540378450009 0.10000000000000001 0.0030000000000000001 0.08839745962154999
0
25 5 15 36 52 
32 5 15 48 64 
15 1 5 0 1 0 2 9 8
25 32 
_sim_empty
73 
1 0.050000000000000003 0.050000000000000003 0.0030000000000000001 0.026794919243099999
0
17 5 16 20 36 
24 5 16 32 48 
16 1 5 0 1 0 2 10 9
17 24 
_sim_empty
75 
1 0.051763809020502566 -0.050000000000000003 0.0030000000000000001 0.013397459621549994
0
9 5 17 4 20 
16 5 17 16 32 
17 1 5 0 1 0 2 11 10
9 16 
_sim_empty
77 
1 0.024999999999999994 -0.125 0.0030000000000000001 0
0
1 5 18 1 4 
8 5 18 10 16 
18 1 5 0 1 0 2 12 11
1 8 
_sim_empty
79 
1 0.074999999999999997 -0.15000000000000016 0.0030000000000000001 0.074999999999999997
0
1 6 1 1 0 2
4 18 1 1 1 2 0 12 3 0 6 4 1 2 6 1 0 0 1
4 6 5 0 12 6 1 1 7 1 18 8 0 1 2 5 0 2 0
1 1 
0

  1 2 
0

0
_sim_empty
130 
1 1.685845200757424e-05 0.0025509734743046448 -0.14999999999999999 -0.00044902652569535524 0.14998314154799242
0
3 6 2 1 0 4
4 17 9 1 2 10 0 11 11 0 1 2 1 4 6 2 0 0 3
4 1 7 0 11 14 1 2 15 1 17 16 0 2 2 5 0 2 0
1 3 
0

  1 4 
0

0
_sim_empty
128 
1 5.6194840025247457e-06 0.0025509734743046448 -0.14999438051599748 -0.00044902652569535524 0
0
5 6 3 1 0 6
4 16 17 1 3 18 0 10 19 0 2 10 1 6 6 3 0 0 5
4 2 15 0 10 22 1 3 23 1 16 24 0 3 2 5 0 2 0
1 5 
0

  1 6 
0

0
_sim_empty
126 
1 1.1635435868018413e-05 0.0025509734743046448 -0.099988761031994958 -0.00044902652569535524 3.0114724007108573e-06
0
7 6 4 1 0 8
4 15 25 1 4 26 0 9 27 0 3 18 1 8 6 4 0 0 7
4 3 23 0 9 30 1 4 31 1 15 32 0 4 2 5 0 2 0
1 7 
0

  1 8 
0

0
_sim_empty
124 
1 1.1238968005049493e-05 0.0025509734743046448 1.1238968005049493e-05 -0.00044902652569535524 0.026794919243099999
0
9 6 5 1 0 10
4 14 33 1 5 34 0 8 35 0 4 26 1 10 6 5 0 0 9
4 4 31 0 8 38 1 5 39 1 14 40 0 5 2 5 0 2 0
1 9 
0

  1 10 
0

0
_sim_empty
120 
1 -0.073191233777293141 0.0025509734743046448 0.10000000000000002 -0.00044902652569535524 0.026808766222706865
0
11 6 6 1 0 12
4 13 41 1 6 4 0 7 43 0 5 34 1 12 6 6 0 0 11
4 5 39 0 7 46 1 6 5 1 13 48 0 6 2 5 0 2 0
1 11 
0

  1 12 
0

0
_sim_empty
118 
1 2.8097420012623733e-05 0.0025509734743046448 0.099971902579987379 -0.00044902652569535524 0.14999999999999999
0
13 6 7 1 0 14
6 12 3 1 11 11 1 10 19 1 9 27 1 8 35 1 7 43 1 14 6 7 0 0 13
6 7 46 0 8 38 0 9 30 0 10 22 0 11 14 0 12 6 0 7 2 5 0 2 0
1 13 
0

  1 14 
0

0
_sim_empty
39 
1 -0.14998314154799242 -0.043709438570639789 -0.043709438570639789 -0.0030000000000000001 0.14998314154799242
0
15 6 8 1 0 16
6 18 1 0 13 41 0 14 33 0 15 25 0 16 17 0 17 9 0 16 6 8 0 0 15
6 17 16 1 16 24 1 15 32 1 14 40 1 13 48 1 18 8 1 8 2 5 0 2 0
1 15 
0

  1 16 
0

0
_sim_empty
63 
1 -0.14998314154799242 -0.043709438570639789 -0.043709438570639789 0.0030000000000000001 0.14998314154799242
0
1 8 1 8
1 0 2 0 3 0 4 0 5 0 6 0 7 0 8 0 1 3 5 0 3 0 1 
1 
0
0
_sim_empty
146 
0 -1
3 8 2 8
1 1 6 1 5 1 4 1 3 1 2 1 7 1 8 1 2 3 8 0 303 0 1 
3 
0
0
_sim_empty
-1
0
0 -1
0 -1
0 -1
0 -1
0 -1
<part> auxmm 3
0
0
<part> attributes 10
AttDBVersion 10 8
0 1 0 19 20
1 2 7
0 
16 FixIntersections
0 
0 0 1
0
0
1 1
0 
1
1 2 3
0 
18 MeshRepresentation
0 
0 0 1
0
0
1 1
0 
0
1 2 4
0 
9 Smoothing
0 
0 0 1
0
0
1 1
0 
2
1 2 5
0 
13 SmoothingType
0 
0 0 1
0
0
1 1
0 
0
1 2 6
0 
12 Optimization
0 
0 0 1
0
0
1 1
0 
1
1 2 8
0 
16 EnforceGradation
0 
0 0 1
0
0
1 1
0 
0
1 3 9
0 
17 FaceRotationLimit
0 
0 0 1
0
0
2 1
0 
15
1 2 10
0 
12 DiscreteSnap
0 
0 0 1
0
0
1 1
0 
0
1 7 2
0 
13 SurfaceMesher
0 
0 0 1
0
8 3 4 5 6 7 8 9 10
1 2 15
0 
12 Optimization
0 
0 0 1
0
0
1 1
0 
1
1 2 12
0 
11 EnforceSize
0 
0 0 1
0
0
1 1
0 
0
1 2 13
0 
9 Smoothing
0 
0 0 1
0
0
1 1
0 
1
1 2 14
0 
13 SmoothingType
0 
0 0 1
0
0
1 1
0 
0
1 2 16
0 
13 ModifySurface
0 
0 0 1
0
0
1 1
0 
1
1 2 17
0 
8 ModifyBL
0 
0 0 1
0
0
1 1
0 
0
1 2 18
0 
16 MeshingByGRegion
0 
0 0 1
0
0
1 1
0 
0
1 7 11
0 
12 VolumeMesher
0 
0 0 1
0
7 12 13 14 15 16 17 18
1 3 20
0 
8 MeshSize
8 Absolute
0 0 1
0
0
2 -1
0 
5 0.005
1 10 19
0 
9 parasolid
0 
0 0 1
0
0
1
4
85 file:///users/gordoz2/lore.scorec.rpi.edu/LLMEnhancedMeshing/testCases/ramp2/ramp.smd27 model.nonmanifold.parasolid6 # 1 0 0 3 1 1
7 initial
7 Meshing
0 
15 0 1
0
3 2 11 20
19
1 1
1
1
3 1  1 20
<index>
3
smd 8
auxmm 6418
attributes 6437
</index>
<header>
4
85 file:///users/gordoz2/lore.scorec.rpi.edu/LLMEnhancedMeshing/testCases/ramp2/ramp.smd27 model.nonmanifold.parasolid6 # 1 0 0 
1
14 FromVoxelModel0 
1
6 native4
14 ./ramp_nat.x_t21 nativeModel.parasolid6 # 1 0 0 
</header>
7625 7677                                                                                                                      
