smi 5 0
<part> smd 37
parasolid 37 1
*
-1
-0.14999999999999999 -0.050000000000000003 0
0 0 0.10000000000000001
1 1007 5 0
0 0 0 0
-0.14999999999999999 -0.050000000000000003 0
0 0 0.10000000000000001
_sim_empty
0 
0 0 0 0
0

0
1 7 15 10
0 0 0 0
0 0 0 0
0 0 0 0
2
54 4 1
61 4 1
1 0 5 0 0 0 2
54 61 
_sim_empty
20 
0 -0.050000000000000003 0.10000000000000001
0
38 4 2
45 4 2
2 0 5 0 0 0 2
38 45 
_sim_empty
15 
0 -0.050000000000000003 0.026794919243099999
0
22 4 3
29 4 3
3 0 5 0 0 0 2
22 29 
_sim_empty
10 
-0.10000000000000001 -0.050000000000000003 0
0
6 4 4
13 4 4
4 0 5 0 0 0 2
6 13 
_sim_empty
5 
-0.14999999999999999 -0.050000000000000003 0
0
7 4 5
11 4 5
5 0 5 0 0 0 2
7 11 
_sim_empty
2 
-0.14999999999999999 -0.050000000000000003 0.10000000000000001
0
52 4 6
64 4 6
6 0 5 0 0 0 2
52 64 
_sim_empty
63 
0 0 0.10000000000000001
0
36 4 7
48 4 7
7 0 5 0 0 0 2
36 48 
_sim_empty
65 
0 0 0.026794919243099999
0
20 4 8
32 4 8
8 0 5 0 0 0 2
20 32 
_sim_empty
67 
-0.10000000000000001 0 0
0
4 4 9
16 4 9
9 0 5 0 0 0 2
4 16 
_sim_empty
69 
-0.14999999999999999 0 0
0
1 4 10
10 4 10
10 0 5 0 0 0 2
1 10 
_sim_empty
71 
-0.14999999999999999 0 0.10000000000000001
0
2 5 1 6 4 
7 5 1 13 16 
1 1 5 0 1 0 2 4 9
2 7 
_sim_empty
87 
1 0.025000000000000001 -0.14999999999999999 -0.025000000000000001 0
0
10 5 2 22 20 
15 5 2 29 32 
2 1 5 0 1 0 2 3 8
10 15 
_sim_empty
86 
1 0.025000000000000001 -0.10000000000000001 -0.025000000000000001 0
0
18 5 3 38 36 
23 5 3 45 48 
3 1 5 0 1 0 2 2 7
18 23 
_sim_empty
85 
1 0.025000000000000001 0 -0.025000000000000001 0.026794919243099999
0
26 5 4 54 52 
31 5 4 61 64 
4 1 5 0 1 0 2 1 6
26 31 
_sim_empty
84 
1 0.025000000000000001 0 -0.025000000000000001 0.10000000000000001
0
4 5 5 7 1 
5 5 5 11 10 
5 1 5 0 1 0 2 5 10
4 5 
_sim_empty
88 
1 0.025000000000000001 -0.14999999999999999 -0.025000000000000001 0.10000000000000001
0
35 5 6 54 7 
38 5 6 61 11 
6 1 5 0 1 0 2 1 5
35 38 
_sim_empty
25 
1 0.074999999999999997 -0.074999999999999997 -0.050000000000000003 0.10000000000000001
0
27 5 7 38 54 
30 5 7 45 61 
7 1 5 0 1 0 2 2 1
27 30 
_sim_empty
21 
1 0.036602540378450003 -7.1742950527953044e-17 -0.050000000000000003 0.063397459621549995
0
19 5 8 22 38 
22 5 8 29 45 
8 1 5 0 1 0 2 3 2
19 22 
_sim_empty
16 
1 0.051763809020502566 -0.050000000000000003 -0.050000000000000003 0.013397459621549994
0
11 5 9 6 22 
14 5 9 13 29 
9 1 5 0 1 0 2 4 3
11 14 
_sim_empty
11 
1 0.024999999999999994 -0.125 -0.050000000000000003 0
0
3 5 10 7 6 
6 5 10 11 13 
10 1 5 0 1 0 2 5 4
3 6 
_sim_empty
6 
1 0.050000000000000003 -0.15000000000000011 -0.050000000000000003 0.050000000000000003
0
33 5 11 52 1 
40 5 11 64 10 
11 1 5 0 1 0 2 6 10
33 40 
_sim_empty
53 
1 0.074999999999999997 -0.074999999999999997 0 0.10000000000000001
0
25 5 12 36 52 
32 5 12 48 64 
12 1 5 0 1 0 2 7 6
25 32 
_sim_empty
55 
1 0.036602540378450003 -7.1742950527953044e-17 0 0.063397459621549995
0
17 5 13 20 36 
24 5 13 32 48 
13 1 5 0 1 0 2 8 7
17 24 
_sim_empty
57 
1 0.051763809020502566 -0.050000000000000003 0 0.013397459621549994
0
9 5 14 4 20 
16 5 14 16 32 
14 1 5 0 1 0 2 9 8
9 16 
_sim_empty
59 
1 0.024999999999999994 -0.125 0 0
0
1 5 15 1 4 
8 5 15 10 16 
15 1 5 0 1 0 2 10 9
1 8 
_sim_empty
61 
1 0.050000000000000003 -0.15000000000000011 0 0.050000000000000003
0
1 6 1 1 0 2
4 15 1 1 1 2 0 10 3 0 5 4 1 2 6 1 0 0 1
4 5 5 0 10 6 1 1 7 1 15 8 0 1 2 5 0 2 0
1 1 
0

  1 2 
0

0
_sim_empty
98 
1 1.1238968005049493e-05 0.021258112285872044 -0.14999999999999999 -0.028741887714127959 0.099988761031994958
0
3 6 2 1 0 4
4 14 9 1 2 10 0 9 11 0 1 2 1 4 6 2 0 0 3
4 1 7 0 9 14 1 2 15 1 14 16 0 2 2 5 0 2 0
1 3 
0

  1 4 
0

0
_sim_empty
96 
1 5.6194840025247457e-06 0.021258112285872044 -0.14999438051599748 -0.028741887714127959 0
0
5 6 3 1 0 6
4 13 17 1 3 18 0 8 19 0 2 10 1 6 6 3 0 0 5
4 2 15 0 8 22 1 3 23 1 13 24 0 3 2 5 0 2 0
1 5 
0

  1 6 
0

0
_sim_empty
94 
1 1.1635435868018413e-05 0.021258112285872044 -0.099988761031994958 -0.028741887714127959 3.0114724007108573e-06
0
7 6 4 1 0 8
4 12 25 1 4 26 0 7 27 0 3 18 1 8 6 4 0 0 7
4 3 23 0 7 30 1 4 31 1 12 32 0 4 2 5 0 2 0
1 7 
0

  1 8 
0

0
_sim_empty
92 
1 8.2274956043386346e-06 0.021258112285872044 -1.4346977472139475e-16 -0.028741887714127959 0.026803146738704337
0
9 6 5 1 0 10
4 11 33 1 5 4 0 6 35 0 4 26 1 10 6 5 0 0 9
4 4 31 0 6 38 1 5 5 1 11 40 0 5 2 5 0 2 0
1 9 
0

  1 10 
0

0
_sim_empty
90 
1 1.685845200757424e-05 0.021258112285872044 -1.685845200757424e-05 -0.028741887714127959 0.10000000000000001
0
11 6 6 1 0 12
5 10 3 1 9 11 1 8 19 1 7 27 1 6 35 1 12 6 6 0 0 11
5 6 38 0 7 30 0 8 22 0 9 14 0 10 6 0 6 2 5 0 2 0
1 11 
0

  1 12 
0

0
_sim_empty
29 
1 -0.099988761031994958 -0.086225663142383877 -0.086225663142383877 -0.050000000000000003 0.099988761031994958
0
13 6 7 1 0 14
5 15 1 0 11 33 0 12 25 0 13 17 0 14 9 0 14 6 7 0 0 13
5 14 16 1 13 24 1 12 32 1 11 40 1 15 8 1 7 2 5 0 2 0
1 13 
0

  1 14 
0

0
_sim_empty
49 
1 -0.099988761031994958 -0.086225663142383877 -0.086225663142383877 0 0.099988761031994958
0
1 8 1 7
1 0 2 0 3 0 4 0 5 0 6 0 7 0 1 3 5 0 3 0 1 
1 
0
0
_sim_empty
110 
0 -1
3 8 2 7
1 1 5 1 4 1 3 1 2 1 6 1 7 1 2 3 8 0 303 0 1 
3 
0
0
_sim_empty
-1
0
0 -1
0 -1
0 -1
0 -1
0 -1
<part> auxmm 3
0
0
<part> attributes 10
AttDBVersion 10 8
0 1 0 19 20
1 2 7
0 
16 FixIntersections
0 
0 0 1
0
0
1 1
0 
1
1 2 3
0 
18 MeshRepresentation
0 
0 0 1
0
0
1 1
0 
0
1 2 4
0 
9 Smoothing
0 
0 0 1
0
0
1 1
0 
2
1 2 5
0 
13 SmoothingType
0 
0 0 1
0
0
1 1
0 
0
1 2 6
0 
12 Optimization
0 
0 0 1
0
0
1 1
0 
1
1 2 8
0 
16 EnforceGradation
0 
0 0 1
0
0
1 1
0 
0
1 3 9
0 
17 FaceRotationLimit
0 
0 0 1
0
0
2 1
0 
15
1 2 10
0 
12 DiscreteSnap
0 
0 0 1
0
0
1 1
0 
0
1 7 2
0 
13 SurfaceMesher
0 
0 0 1
0
8 3 4 5 6 7 8 9 10
1 2 15
0 
12 Optimization
0 
0 0 1
0
0
1 1
0 
1
1 2 12
0 
11 EnforceSize
0 
0 0 1
0
0
1 1
0 
0
1 2 13
0 
9 Smoothing
0 
0 0 1
0
0
1 1
0 
1
1 2 14
0 
13 SmoothingType
0 
0 0 1
0
0
1 1
0 
0
1 2 16
0 
13 ModifySurface
0 
0 0 1
0
0
1 1
0 
1
1 2 17
0 
8 ModifyBL
0 
0 0 1
0
0
1 1
0 
0
1 2 18
0 
16 MeshingByGRegion
0 
0 0 1
0
0
1 1
0 
0
1 7 11
0 
12 VolumeMesher
0 
0 0 1
0
7 12 13 14 15 16 17 18
1 6 20
0 
13 AnisoMeshSize
8 Absolute
0 0 1
0
0
2 3 0
2 1
0 
0.0050000000000000001
2 1
0 
0
2 1
0 
0
2 1
0 
0
2 1
0 
0.050000000000000003
2 1
0 
0
2 1
0 
0
2 1
0 
0
2 1
0 
0.0050000000000000001
1 10 19
0 
9 parasolid
0 
0 0 1
0
0
1
4
84 file:///users/gordoz2/lore.scorec.rpi.edu/LLMEnhancedMeshing/testCases/ramp/ramp.smd27 model.nonmanifold.parasolid6 # 1 0 0 3 1 1
7 initial
7 Meshing
0 
15 0 1
0
3 2 11 20
19
1 1
1
1
3 1  1 20
<index>
3
smd 8
auxmm 5167
attributes 5186
</index>
<header>
4
84 file:///users/gordoz2/lore.scorec.rpi.edu/LLMEnhancedMeshing/testCases/ramp/ramp.smd27 model.nonmanifold.parasolid6 # 1 0 0 
1
14 FromVoxelModel0 
1
6 native4
14 ./ramp_nat.x_t21 nativeModel.parasolid6 # 1 0 0 
</header>
6509 6561                                                                                                                      
